<svg width="20" height="20" viewBox="0 0 20 20" fill="none" xmlns="http://www.w3.org/2000/svg">
<g id="vuesax/outline/receipt-search">
<g id="receipt-search">
<path id="Vector" d="M8.78361 18.2833C8.59194 18.2833 8.40861 18.2 8.28361 18.0333L7.44193 16.9083C7.26693 16.675 7.03362 16.5416 6.78362 16.5249C6.53362 16.5083 6.28359 16.625 6.08359 16.8333C4.87526 18.125 3.9586 18.0166 3.51694 17.85C3.06694 17.675 2.30859 17.0999 2.30859 15.2499V5.86663C2.30859 2.16663 3.37526 1.04163 6.86693 1.04163H13.1586C16.6503 1.04163 17.7169 2.16663 17.7169 5.86663V9.41662C17.7169 9.75828 17.4336 10.0416 17.0919 10.0416C16.7503 10.0416 16.4669 9.75828 16.4669 9.41662V5.86663C16.4669 2.8583 15.9419 2.29163 13.1586 2.29163H6.86693C4.08359 2.29163 3.55859 2.8583 3.55859 5.86663V15.2499C3.55859 16.1249 3.77526 16.6083 3.97526 16.6833C4.12526 16.7416 4.53361 16.6583 5.16695 15.9833C5.62528 15.5 6.22527 15.2416 6.85027 15.2749C7.46694 15.3083 8.05027 15.6333 8.44194 16.1583L9.29193 17.2833C9.50026 17.5583 9.44194 17.95 9.16694 18.1583C9.04194 18.25 8.90861 18.2833 8.78361 18.2833Z" fill="#8999B9"/>
<path id="Vector_2" d="M13.3327 6.45837H6.66602C6.32435 6.45837 6.04102 6.17504 6.04102 5.83337C6.04102 5.49171 6.32435 5.20837 6.66602 5.20837H13.3327C13.6743 5.20837 13.9577 5.49171 13.9577 5.83337C13.9577 6.17504 13.6743 6.45837 13.3327 6.45837Z" fill="#8999B9"/>
<path id="Vector_3" d="M12.5 9.79163H7.5C7.15833 9.79163 6.875 9.50829 6.875 9.16663C6.875 8.82496 7.15833 8.54163 7.5 8.54163H12.5C12.8417 8.54163 13.125 8.82496 13.125 9.16663C13.125 9.50829 12.8417 9.79163 12.5 9.79163Z" fill="#8999B9"/>
</g>
</g>
</svg>
