<svg width="69" height="52" viewBox="0 0 69 52" fill="none" xmlns="http://www.w3.org/2000/svg">
<rect width="69" height="52" fill="#E8E8E8"/>
<g id="05 - &#216;&#170;&#216;&#181;&#217;&#136;&#219;&#140;&#216;&#177; &#218;&#169;&#216;&#167;&#216;&#177;&#216;&#170; &#217;&#133;&#217;&#132;&#219;&#140; - &#216;&#168;&#216;&#175;&#217;&#136;&#217;&#134; &#217;&#129;&#216;&#167;&#219;&#140;&#217;&#132;" clip-path="url(#clip0_509_11401)">
<rect width="1920" height="1080" transform="translate(-1106 -298)" fill="#F7F8FA"/>
<g id="&#216;&#167;&#216;&#183;&#217;&#132;&#216;&#167;&#216;&#185;&#216;&#167;&#216;&#170; &#217;&#133;&#216;&#173;&#217;&#132; &#216;&#179;&#218;&#169;&#217;&#136;&#217;&#134;&#216;&#170;">
<rect x="-846" y="-188" width="1400" height="508" rx="12" fill="white"/>
<g id="Frame 59772">
<g id="File">
<g id="Upload Box">
<path d="M194 -24.5H194.5V-17.5H194V-10.5H194.5V-3.5H194V3.5H194.5V10.5H194V17.5H194.5V24.5H194V31.5H194.5V38.5H194V45.5H194.5V52.5H194V59.5H194.5V66.5H194V73.5H194.5V80.5H194V87.5H194.5V94.5H194V101.5H194.5V108.5H194V115.5H194.5V122.5H194V129.5H194.5V136.5H194V139.5H191.022V140H184.065V139.5H177.109V140H170.152V139.5H163.196V140H156.239V139.5H149.283V140H142.326V139.5H135.37V140H128.413V139.5H121.457V140H114.5V139.5H107.544V140H100.587V139.5H93.6305V140H86.674V139.5H79.7174V140H72.7609V139.5H65.8044V140H58.8479V139.5H51.8913V140H44.9348V139.5H37.9783V140H31.0217V139.5H24.0652V140H17.1087V139.5H10.1522V140H3.19563V139.5H-3.76089V140H-10.7174V139.5H-17.6739V140H-24.6304V139.5H-31.587V140H-38.5435V139.5H-45.5V140H-52.4565V139.5H-59.413V140H-66.3696V139.5H-73.3261V140H-80.2826V139.5H-87.2391V140H-94.1957V139.5H-101.152V140H-108.109V139.5H-115.065V140H-122.022V139.5H-125V136.5H-125.5V129.5H-125V122.5H-125.5V115.5H-125V108.5H-125.5V101.5H-125V94.5H-125.5V87.5H-125V80.5H-125.5V73.5H-125V66.5H-125.5V59.5H-125V52.5H-125.5V45.5H-125V38.5H-125.5V31.5H-125V24.5H-125.5V17.5H-125V10.5H-125.5V3.5H-125V-3.5H-125.5V-10.5H-125V-17.5H-125.5V-24.5H-125V-28C-125 -29.5602 -124.69 -31.0467 -124.128 -32.4019L-124.589 -32.5935C-123.373 -35.5267 -121.027 -37.873 -118.093 -39.0894L-117.902 -38.6276C-116.547 -39.1896 -115.06 -39.5 -113.5 -39.5H-109.976V-40H-102.929V-39.5H-95.881V-40H-88.8334V-39.5H-81.7858V-40H-74.7382V-39.5H-67.6906V-40H-60.643V-39.5H-53.5953V-40H-46.5477V-39.5H-39.5001V-40H-32.4525V-39.5H-25.4048V-40H-18.3572V-39.5H-11.3096V-40H-4.26197V-39.5H2.78566V-40H9.83328V-39.5H16.8809V-40H23.9285V-39.5H30.9762V-40H38.0238V-39.5H45.0714V-40H52.119V-39.5H59.1666V-40H66.2143V-39.5H73.2619V-40H80.3095V-39.5H87.3571V-40H94.4048V-39.5H101.452V-40H108.5V-39.5H115.548V-40H122.595V-39.5H129.643V-40H136.69V-39.5H143.738V-40H150.786V-39.5H157.833V-40H164.881V-39.5H171.929V-40H178.976V-39.5H182.5C184.06 -39.5 185.547 -39.1896 186.902 -38.6276L187.093 -39.0894C190.027 -37.8731 192.373 -35.5267 193.589 -32.5935L193.128 -32.4019C193.69 -31.0467 194 -29.5602 194 -28V-24.5Z" fill="#F9FAFB"/>
<path d="M194 -24.5H194.5V-17.5H194V-10.5H194.5V-3.5H194V3.5H194.5V10.5H194V17.5H194.5V24.5H194V31.5H194.5V38.5H194V45.5H194.5V52.5H194V59.5H194.5V66.5H194V73.5H194.5V80.5H194V87.5H194.5V94.5H194V101.5H194.5V108.5H194V115.5H194.5V122.5H194V129.5H194.5V136.5H194V139.5H191.022V140H184.065V139.5H177.109V140H170.152V139.5H163.196V140H156.239V139.5H149.283V140H142.326V139.5H135.37V140H128.413V139.5H121.457V140H114.5V139.5H107.544V140H100.587V139.5H93.6305V140H86.674V139.5H79.7174V140H72.7609V139.5H65.8044V140H58.8479V139.5H51.8913V140H44.9348V139.5H37.9783V140H31.0217V139.5H24.0652V140H17.1087V139.5H10.1522V140H3.19563V139.5H-3.76089V140H-10.7174V139.5H-17.6739V140H-24.6304V139.5H-31.587V140H-38.5435V139.5H-45.5V140H-52.4565V139.5H-59.413V140H-66.3696V139.5H-73.3261V140H-80.2826V139.5H-87.2391V140H-94.1957V139.5H-101.152V140H-108.109V139.5H-115.065V140H-122.022V139.5H-125V136.5H-125.5V129.5H-125V122.5H-125.5V115.5H-125V108.5H-125.5V101.5H-125V94.5H-125.5V87.5H-125V80.5H-125.5V73.5H-125V66.5H-125.5V59.5H-125V52.5H-125.5V45.5H-125V38.5H-125.5V31.5H-125V24.5H-125.5V17.5H-125V10.5H-125.5V3.5H-125V-3.5H-125.5V-10.5H-125V-17.5H-125.5V-24.5H-125V-28C-125 -29.5602 -124.69 -31.0467 -124.128 -32.4019L-124.589 -32.5935C-123.373 -35.5267 -121.027 -37.873 -118.093 -39.0894L-117.902 -38.6276C-116.547 -39.1896 -115.06 -39.5 -113.5 -39.5H-109.976V-40H-102.929V-39.5H-95.881V-40H-88.8334V-39.5H-81.7858V-40H-74.7382V-39.5H-67.6906V-40H-60.643V-39.5H-53.5953V-40H-46.5477V-39.5H-39.5001V-40H-32.4525V-39.5H-25.4048V-40H-18.3572V-39.5H-11.3096V-40H-4.26197V-39.5H2.78566V-40H9.83328V-39.5H16.8809V-40H23.9285V-39.5H30.9762V-40H38.0238V-39.5H45.0714V-40H52.119V-39.5H59.1666V-40H66.2143V-39.5H73.2619V-40H80.3095V-39.5H87.3571V-40H94.4048V-39.5H101.452V-40H108.5V-39.5H115.548V-40H122.595V-39.5H129.643V-40H136.69V-39.5H143.738V-40H150.786V-39.5H157.833V-40H164.881V-39.5H171.929V-40H178.976V-39.5H182.5C184.06 -39.5 185.547 -39.1896 186.902 -38.6276L187.093 -39.0894C190.027 -37.8731 192.373 -35.5267 193.589 -32.5935L193.128 -32.4019C193.69 -31.0467 194 -29.5602 194 -28V-24.5Z" stroke="#E2EDFF" stroke-dasharray="7 7"/>
<path id="Vector" d="M45.8333 37.2312H37.3333V51.2703H31.6667V37.2312H23.1667L34.5 26L45.8333 37.2312ZM55.6905 20.6427C55.0898 9.54906 45.8503 0.729736 34.5 0.729736C23.1497 0.729736 13.9102 9.54906 13.3095 20.6427C6.02783 21.9427 0.5 28.2406 0.5 35.8273C0.5 44.3546 7.4785 51.2703 16.0833 51.2703H26V45.6547H16.0833C10.615 45.6547 6.16667 41.2464 6.16667 35.8273C6.16667 27.9739 13.1905 25.065 18.7268 25.3823C18.2537 13.539 24.9828 6.34535 34.5 6.34535C44.2835 6.34535 51.1912 14.1988 50.2732 25.3823C55.2173 25.2531 62.8333 27.491 62.8333 35.8273C62.8333 41.2464 58.385 45.6547 52.9167 45.6547H43V51.2703H52.9167C61.5215 51.2703 68.5 44.3546 68.5 35.8273C68.5 28.2406 62.9722 21.9427 55.6905 20.6427Z" fill="#C3C5C9"/>
</g>
</g>
</g>
</g>
</g>
<defs>
<clipPath id="clip0_509_11401">
<rect width="1920" height="1080" fill="white" transform="translate(-1106 -298)"/>
</clipPath>
</defs>
</svg>
