<svg xmlns="http://www.w3.org/2000/svg" width="97" height="93" viewBox="0 0 97 93" fill="none">
  <g clip-path="url(#clip0_3554_19400)">
    <path d="M3.94204 55.6217C1.96103 52.7775 2.6336 48.8444 5.44789 46.8398C8.26043 44.8352 12.1456 45.5158 14.1283 48.3635L14.2105 48.4837C16.1932 51.328 15.5189 55.2611 12.7046 57.2657C9.89381 59.272 6.0069 58.5897 4.02589 55.7419L3.94204 55.6217ZM50.7097 59.0983L20.5989 16.1596C18.6197 13.3012 19.3062 9.35923 22.1327 7.35819C24.9575 5.35715 28.8532 6.05186 30.8307 8.91023L75.7835 73.1891C77.7628 76.0475 77.0763 79.9895 74.2497 81.9905C71.425 83.9933 67.5293 83.2986 65.5518 80.4385L50.7097 59.0983ZM78.733 68.3951L39.8326 12.1769C37.8551 9.31857 38.5416 5.3766 41.3664 3.37379C44.1929 1.37276 48.0885 2.06746 50.066 4.92584L88.9665 61.144C90.944 64.0024 90.2575 67.9444 87.4327 69.9454C84.6079 71.9464 80.7123 71.2517 78.733 68.3934V68.3951ZM85.1355 45.8658L62.9444 13.7997C60.9668 10.9396 61.6534 6.99758 64.4782 4.99654C67.3029 2.99551 71.1986 3.69021 73.1778 6.54859L95.3672 38.6164C97.3465 41.4748 96.66 45.4168 93.8334 47.4178C91.0087 49.4206 87.113 48.7259 85.1355 45.8658ZM49.2205 89.307L10.3201 33.0888C8.34079 30.2287 9.02733 26.2867 11.8539 24.2857C14.6786 22.2847 18.5743 22.9794 20.5518 25.8377L59.4523 82.0542C61.4315 84.9143 60.745 88.8563 57.9185 90.8573C55.0937 92.8583 51.198 92.1636 49.2205 89.3053V89.307ZM13.3038 69.1818C11.3245 66.3234 12.0111 62.3814 14.8376 60.3804C17.6624 58.3776 21.558 59.0723 23.5355 61.9324L36.3405 80.4385C38.3197 83.2969 37.6332 87.2388 34.8067 89.2399C31.9819 91.2427 28.0863 90.548 26.1087 87.6878L13.3038 69.1818Z" fill="#4152A0"/>
    <path d="M2.40202 53.3912C0.421005 50.5452 1.09706 46.6121 3.90786 44.6075C6.72041 42.603 10.6056 43.2853 12.5883 46.1313L12.6722 46.2515C14.6532 49.0975 13.9789 53.0289 11.1646 55.0352C8.35378 57.0398 4.46688 56.3574 2.48587 53.5097L2.40202 53.3912ZM64.201 78.3476L19.0572 13.9291C17.0779 11.0707 17.7645 7.12874 20.591 5.1277C23.4157 3.12666 27.3114 3.82137 29.2889 6.67974L74.4327 71.0965C76.412 73.9549 75.7254 77.8968 72.8989 79.8996C70.0742 81.9007 66.1785 81.206 64.201 78.3476ZM77.193 66.1629L38.2925 9.94645C36.315 7.08808 37.0016 3.14611 39.8263 1.14507C42.6529 -0.857734 46.5485 -0.163028 48.526 2.69711L87.4265 58.9135C89.404 61.7719 88.7175 65.7139 85.8927 67.7149C83.0679 69.7177 79.1723 69.023 77.193 66.1629ZM83.5955 43.6335L61.4043 11.5674C59.4268 8.7073 60.1133 4.76532 62.9381 2.76428C65.7629 0.763247 69.6585 1.45795 71.6378 4.31633L93.8272 36.3842C95.8065 39.2426 95.1199 43.1845 92.2934 45.1856C89.4686 47.1884 85.573 46.4937 83.5955 43.6335ZM47.6805 87.0748L8.78003 30.8584C6.80077 27.9982 7.48731 24.058 10.3138 22.0552C13.1386 20.0542 17.0342 20.7489 19.0118 23.6072L57.9122 79.8237C59.8915 82.6838 59.2049 86.6258 56.3784 88.6268C53.5537 90.6279 49.658 89.9332 47.6805 87.0748ZM11.7638 66.9495C9.78451 64.0911 10.471 60.1492 13.2976 58.1481C16.1223 56.1453 20.018 56.84 21.9955 59.7002L34.8022 78.2062C36.7797 81.0646 36.0932 85.0066 33.2684 87.0076C30.4419 89.0104 26.5462 88.3157 24.5687 85.4556L11.7638 66.9495Z" fill="#4152A0"/>
    <path d="M2.48391 53.5127L2.40006 53.3943C0.419051 50.5483 1.09511 46.6152 3.90591 44.6106C6.71845 42.606 10.6036 43.2883 12.5864 46.1343L12.6685 46.2545C12.9689 46.6859 13.2083 47.1402 13.3865 47.6104C11.2762 45.7384 8.09852 45.4944 5.7 47.202C3.3137 48.9043 2.46645 51.9943 3.47617 54.6299C3.11106 54.3064 2.77565 53.9317 2.48391 53.5127ZM31.081 9.27247C29.1035 6.4141 25.2079 5.71939 22.3831 7.72043C19.5566 9.72324 18.87 13.6634 20.8493 16.5236L19.0552 13.9304C17.076 11.0702 17.7625 7.12825 20.589 5.12721C23.4138 3.12618 27.3094 3.82088 29.2869 6.67925L31.081 9.27247ZM41.6167 3.7378C38.792 5.73884 38.1054 9.68081 40.0829 12.5392L38.2888 9.94597C36.3113 7.08759 36.9979 3.14562 39.8226 1.14458C42.6474 -0.858223 46.5448 -0.163516 48.5223 2.69662L50.3164 5.28984C48.3389 2.4297 44.4432 1.73499 41.6167 3.7378ZM64.7285 5.35525C61.9037 7.35805 61.2155 11.3 63.1947 14.1584L61.4006 11.5652C59.4231 8.70504 60.1096 4.76307 62.9344 2.76203C65.7592 0.760992 69.6548 1.4557 71.6341 4.31407L73.4282 6.90729C71.4507 4.04891 67.555 3.35421 64.7285 5.35525ZM12.106 24.6479C9.27944 26.6507 8.59115 30.5927 10.5722 33.4511L8.77808 30.8579C6.79881 27.9977 7.48535 24.0575 10.3119 22.0547C13.1366 20.0537 17.0323 20.7484 19.0098 23.6068L20.8039 26.2C18.8264 23.3416 14.9307 22.6469 12.106 24.6479ZM15.088 60.7409C12.2614 62.7419 11.5749 66.6839 13.5542 69.5422L11.7601 66.949C9.78081 64.0907 10.4674 60.1487 13.2939 58.1476C16.1186 56.1448 20.0143 56.8395 21.9918 59.6997L23.7859 62.2929C21.8084 59.4345 17.9127 58.7398 15.088 60.7409Z" fill="#808BBF"/>
  </g>
  <defs>
    <clipPath id="clip0_3554_19400">
      <rect width="96" height="92" fill="white" transform="translate(0.5 0.500488)"/>
    </clipPath>
  </defs>
</svg>